<?xml version="1.0" encoding="UTF-8" standalone="no"?>
<svg id="Layer_1" xmlns:rdf="http://www.w3.org/1999/02/22-rdf-syntax-ns#" xmlns="http://www.w3.org/2000/svg" version="1.1" xml:space="preserve" height="60" viewBox="0 0 59.999999 59.999999" width="60" enable-background="new 0 0 56.693 56.693" xmlns:cc="http://creativecommons.org/ns#" xmlns:dc="http://purl.org/dc/elements/1.1/"><metadata id="metadata9"><rdf:RDF><cc:Work rdf:about=""><dc:format>image/svg+xml</dc:format><dc:type rdf:resource="http://purl.org/dc/dcmitype/StillImage"/><dc:title/></cc:Work></rdf:RDF></metadata><path id="path3" fill="#fff" d="m60 11.392c-2.2057 0.98045-4.5795 1.6418-7.0702 1.9378 2.5431-1.5224 4.493-3.934 5.4126-6.8108-2.3787 1.4116-5.0119 2.4359-7.8168 2.9889-2.2447-2.3921-5.4442-3.8877-8.9848-3.8877-6.7974 0-12.309 5.5112-12.309 12.31 0 0.9634 0.1084 1.9024 0.3191 2.8049-10.231-0.514-19.302-5.414-25.373-12.862-1.06 1.8176-1.6666 3.932-1.6666 6.19 0 4.2701 2.1728 8.0385 5.4759 10.245-2.0169-0.06455-3.9157-0.61872-5.5758-1.5407-0.00122 0.05115-0.00122 0.10353-0.00122 0.1559 0 5.9631 4.2433 10.937 9.8752 12.07-1.0328 0.28013-2.1205 0.43116-3.2434 0.43116-0.7941 0-1.5651-0.07673-2.3165-0.22167 1.5675 4.8901 6.1129 8.4502 11.499 8.5488-4.2129 3.3019-9.5195 5.2701-15.288 5.2701-0.99263 0-1.9731-0.05846-2.9365-0.17295 5.4491 3.4943 11.919 5.5307 18.87 5.5307 22.643 0 35.023-18.756 35.023-35.023 0-0.53346-0.01096-1.0657-0.0341-1.5943 2.4042-1.7319 4.4918-3.9011 6.1409-6.3699z"/></svg>
