<?xml version="1.0" encoding="UTF-8" standalone="no"?>
<svg id="Layer_1" xmlns:rdf="http://www.w3.org/1999/02/22-rdf-syntax-ns#" xmlns="http://www.w3.org/2000/svg" version="1.1" xml:space="preserve" height="60" viewBox="0 0 59.999999 59.999999" width="60" enable-background="new 0 0 56.693 56.693" xmlns:cc="http://creativecommons.org/ns#" xmlns:dc="http://purl.org/dc/elements/1.1/"><metadata id="metadata17"><rdf:RDF><cc:Work rdf:about=""><dc:format>image/svg+xml</dc:format><dc:type rdf:resource="http://purl.org/dc/dcmitype/StillImage"/><dc:title/></cc:Work></rdf:RDF></metadata><path id="path9" fill="#fff" d="m11.591 0c-6.394-0.000007-11.591 5.2014-11.591 11.596v12.243 24.565c0 6.392 5.197 11.596 11.591 11.596h36.813c6.392 0 11.596-5.204 11.596-11.596v-24.565-12.243c0-6.3946-5.204-11.596-11.596-11.596h-36.813zm41.462 6.3778v1.322 8.8466l-10.134 0.03503-0.03503-10.169 8.8466-0.030637 1.322-0.00448zm-23.055 12.528c3.5232 0 6.6458 1.7455 8.562 4.4036 1.2528 1.7324 2.0004 3.8617 2.0004 6.1589 0 5.8226-4.7399 10.558-10.562 10.558-5.8226 0-10.558-4.7355-10.558-10.558 0-2.2972 0.74324-4.4265 1.9961-6.1589 1.9207-2.6581 5.0389-4.4036 8.562-4.4036zm-24.154 4.4036h8.956c-0.77097 1.905-1.2038 3.9782-1.2038 6.1589 0 9.0432 7.3542 16.406 16.402 16.406 9.0477-0.000002 16.406-7.363 16.406-16.406 0-2.1784-0.43483-4.2539-1.2125-6.1589h8.9604v24.566c0 3.169-2.5784 5.7474-5.7474 5.7474h-36.813c-3.169 0-5.7474-2.5784-5.7474-5.7474v-24.566z"/></svg>
