<?xml version="1.0" encoding="UTF-8" standalone="no"?>
<svg
   xmlns:dc="http://purl.org/dc/elements/1.1/"
   xmlns:cc="http://creativecommons.org/ns#"
   xmlns:rdf="http://www.w3.org/1999/02/22-rdf-syntax-ns#"
   xmlns:svg="http://www.w3.org/2000/svg"
   xmlns="http://www.w3.org/2000/svg"
   xmlns:sodipodi="http://sodipodi.sourceforge.net/DTD/sodipodi-0.dtd"
   xmlns:inkscape="http://www.inkscape.org/namespaces/inkscape"
   height="60"
   id="Layer_1"
   version="1.1"
   viewBox="0 0 60 60"
   width="60"
   xml:space="preserve"
   inkscape:version="0.91 r13725"
   sodipodi:docname="ico-google-plus.svg"><metadata
     id="metadata15"><rdf:RDF><cc:Work
         rdf:about=""><dc:format>image/svg+xml</dc:format><dc:type
           rdf:resource="http://purl.org/dc/dcmitype/StillImage" /><dc:title></dc:title></cc:Work></rdf:RDF></metadata><defs
     id="defs13" /><sodipodi:namedview
     pagecolor="#ffffff"
     bordercolor="#666666"
     borderopacity="1"
     objecttolerance="10"
     gridtolerance="10"
     guidetolerance="10"
     inkscape:pageopacity="0"
     inkscape:pageshadow="2"
     inkscape:window-width="1125"
     inkscape:window-height="837"
     id="namedview11"
     showgrid="false"
     inkscape:zoom="1.84375"
     inkscape:cx="-2.9830508"
     inkscape:cy="64"
     inkscape:window-x="0"
     inkscape:window-y="0"
     inkscape:window-maximized="0"
     inkscape:current-layer="Layer_1" /><style
     type="text/css"
     id="style3"><![CDATA[
	.st0{fill-rule:evenodd;clip-rule:evenodd;}
]]></style><g
     id="g5"
     transform="matrix(0.55493896,0,0,0.55493896,-5.515816,-5.5155385)"
     style="fill:#ffffff"><path
       d="m 79.254,9.939 -28.4,0 c -3.764,0 -7.801,0.438 -12.111,1.315 -4.35,1.024 -8.544,3.189 -12.58,6.512 -5.883,5.68 -8.82,12.004 -8.82,18.979 0,5.769 2.075,10.824 6.229,15.17 3.964,4.661 9.726,7.04 17.288,7.135 1.424,0 2.946,-0.095 4.559,-0.278 -0.265,0.748 -0.556,1.551 -0.867,2.439 -0.355,0.831 -0.532,1.882 -0.532,3.135 0,2.083 0.463,3.874 1.399,5.361 0.8,1.53 1.713,2.969 2.739,4.317 -3.316,0.088 -7.476,0.507 -12.489,1.241 -5.064,0.878 -9.896,2.633 -14.491,5.255 -4.099,2.443 -6.929,5.281 -8.486,8.502 -1.618,3.226 -2.42,6.161 -2.42,8.785 0,5.394 2.479,10.023 7.425,13.899 4.907,4.142 12.332,6.264 22.279,6.353 11.882,-0.182 20.978,-3.018 27.273,-8.517 6.077,-5.317 9.119,-11.41 9.119,-18.292 -0.094,-4.845 -1.2,-8.769 -3.325,-11.775 -2.256,-2.957 -4.881,-5.646 -7.873,-8.099 L 60.351,67.428 C 59.657,66.735 58.936,65.925 58.203,65.002 57.333,64.033 56.9,62.814 56.9,61.325 c 0,-1.522 0.425,-2.859 1.269,-4.013 0.72,-1.112 1.499,-2.103 2.349,-2.979 1.478,-1.292 2.872,-2.567 4.184,-3.808 1.186,-1.25 2.308,-2.611 3.361,-4.088 2.162,-3.051 3.286,-7.112 3.366,-12.192 0,-2.77 -0.312,-5.197 -0.935,-7.274 -0.761,-2.08 -1.632,-3.876 -2.613,-5.403 -1.027,-1.611 -2.071,-2.977 -3.141,-4.085 -1.113,-1.064 -2.113,-1.871 -3.009,-2.425 l 8.755,0 8.768,-5.119 z M 63.691,87.382 c 2.346,2.677 3.521,5.812 3.521,9.419 0,4.438 -1.718,8.061 -5.156,10.882 -3.522,2.863 -8.632,4.339 -15.324,4.435 -7.463,-0.096 -13.339,-1.757 -17.638,-4.988 -4.52,-3.233 -6.773,-7.346 -6.773,-12.336 0,-2.538 0.512,-4.708 1.557,-6.509 0.899,-1.712 2.008,-3.144 3.32,-4.297 1.359,-1.106 2.692,-1.964 4.002,-2.564 1.312,-0.553 2.326,-0.971 3.05,-1.246 3.075,-0.925 6.084,-1.595 9.023,-2.011 2.982,-0.276 4.837,-0.365 5.56,-0.276 1.217,0 2.28,0.043 3.188,0.139 5.293,3.698 9.18,6.813 11.67,9.352 z M 59.078,45.595 c -0.342,1.897 -1.113,3.749 -2.318,5.552 -2.489,2.546 -5.604,3.892 -9.343,4.03 -2.961,0 -5.59,-0.902 -7.888,-2.71 -2.307,-1.804 -4.181,-4.001 -5.638,-6.592 -3.005,-5.556 -4.505,-10.896 -4.505,-16.029 -0.097,-3.888 0.933,-7.405 3.084,-10.549 2.553,-3.01 5.75,-4.561 9.599,-4.654 2.908,0.093 5.481,0.954 7.719,2.566 2.192,1.71 3.961,3.937 5.306,6.664 2.863,5.686 4.296,11.337 4.296,16.931 0,1.3 -0.107,2.892 -0.312,4.791 z"
       id="path7"
       inkscape:connector-curvature="0"
       style="fill:#ffffff" /><polygon
       points="117.727,32.669 117.727,25.451 102.828,25.451 102.828,10.546 95.608,10.546 95.608,25.451 80.709,25.451 80.709,32.669 95.608,32.669 95.608,47.568 102.828,47.568 102.828,32.669 "
       id="polygon9"
       style="fill:#ffffff" /></g></svg>